<svg id="color_line" height="512" viewBox="0 0 74 74" width="512" xmlns="http://www.w3.org/2000/svg" data-name="color line"><path d="m70.9 44.39-.02 8.57a4.236 4.236 0 0 1 -4.23 4.22h-59.42a4.227 4.227 0 0 1 -4.23-4.24l.02-8.55z" fill="#e1e6e9"/><path d="m70.9 44.39-.02 8.57a4.236 4.236 0 0 1 -4.23 4.22h-3.34a4.236 4.236 0 0 0 4.23-4.22l.02-8.57z" fill="#d5d6db"/><path d="m71 10.43-.1 33.96h-67.88l.1-33.99a4.227 4.227 0 0 1 4.23-4.21h59.42a4.227 4.227 0 0 1 4.23 4.24z" fill="#89c5cd"/><path d="m71 10.43-.1 33.96h-3.39l.09-34.89a4.194 4.194 0 0 0 -1.58-3.31h.75a4.227 4.227 0 0 1 4.23 4.24z" fill="#6eaaad"/><path d="m45.17 57.179h-16.475l-3.011 9.501h22.497z" fill="#d5d6db"/><path d="m48.864 67.18h-23.864l3.328-10.5h17.208zm-22.5-1h21.136l-2.7-8.5h-15.738z" fill="#323c6b"/><path d="m22.233 66.18h29.397v1h-29.397z" fill="#323c6b"/><circle cx="37.059" cy="50.62" fill="#27ccbc" r="1.861"/><g fill="#323c6b"><path d="m37.06 52.981a2.361 2.361 0 1 1 2.36-2.361 2.364 2.364 0 0 1 -2.36 2.361zm0-3.722a1.361 1.361 0 1 0 1.36 1.361 1.362 1.362 0 0 0 -1.36-1.361z"/><path d="m22.792 60.679h-9.042a.5.5 0 0 1 0-1h9.042a.5.5 0 1 1 0 1z"/><path d="m11.167 60.679h-.542a.5.5 0 0 1 0-1h.542a.5.5 0 1 1 0 1z"/><path d="m53.344 3.688h-.354a.5.5 0 0 1 0-1h.354a.5.5 0 0 1 0 1z"/><path d="m65.313 3.688h-9.438a.5.5 0 0 1 0-1h9.438a.5.5 0 0 1 0 1z"/><path d="m66.65 57.68h-59.42a4.728 4.728 0 0 1 -4.73-4.742l.021-9.048h68.879l-.021 9.071a4.744 4.744 0 0 1 -4.729 4.719zm-63.131-12.79-.019 8.051a3.727 3.727 0 0 0 3.73 3.739h59.42a3.741 3.741 0 0 0 3.729-3.722l.02-8.068z"/></g><g fill="#eeefee" opacity=".4"><path d="m40.02 6.19-16.91 38.2h-1.37l16.92-38.2z"/><path d="m52.83 6.19-16.91 38.2h-4.44l16.91-38.2z"/><path d="m45.48 6.19-16.91 38.2h-3.05l16.9-38.2z"/></g><path d="m71.4 44.89h-68.882l.102-34.49a4.738 4.738 0 0 1 4.73-4.71h59.42a4.728 4.728 0 0 1 4.73 4.742zm-67.878-1h66.878l.1-33.462a3.727 3.727 0 0 0 -3.73-3.738h-59.42a3.736 3.736 0 0 0 -3.73 3.71z" fill="#323c6b"/><rect fill="#eeefee" height="20.113" rx="3.473" width="26.461" x="23.458" y="19.845"/><path d="m49.92 23.32v13.16a3.473 3.473 0 0 1 -2.42 3.31 3.214 3.214 0 0 0 .19-1.12v-13.16a3.474 3.474 0 0 0 -3.47-3.48h-19.52a3.3 3.3 0 0 0 -1.05.17 3.459 3.459 0 0 1 3.28-2.36h19.52a3.48 3.48 0 0 1 3.47 3.48z" fill="#e1e6e9"/><path d="m23.458 35.1a5.2 5.2 0 0 1 0-10.391z" fill="#d5d6db"/><path d="m23.958 35.6h-.5a5.7 5.7 0 1 1 0-11.391h.5zm-1-10.364a4.7 4.7 0 0 0 0 9.338z" fill="#323c6b"/><path d="m49.919 35.1a5.2 5.2 0 1 0 0-10.391z" fill="#d5d6db"/><path d="m49.919 35.6h-.5v-11.394h.5a5.7 5.7 0 0 1 0 11.391zm.5-10.364v9.334a4.7 4.7 0 0 0 0-9.338z" fill="#323c6b"/><circle cx="30.888" cy="27.709" fill="#d5d6db" r="2.719"/><path d="m30.888 30.928a3.219 3.219 0 1 1 3.219-3.219 3.223 3.223 0 0 1 -3.219 3.219zm0-5.438a2.219 2.219 0 1 0 2.219 2.219 2.221 2.221 0 0 0 -2.219-2.219z" fill="#323c6b"/><circle cx="42.489" cy="27.709" fill="#d5d6db" r="2.719"/><path d="m42.489 30.928a3.219 3.219 0 1 1 3.219-3.219 3.223 3.223 0 0 1 -3.219 3.219zm0-5.438a2.219 2.219 0 1 0 2.219 2.219 2.222 2.222 0 0 0 -2.219-2.219z" fill="#323c6b"/><path d="m32.178 35.231h9.021v1h-9.021z" fill="#323c6b"/><path d="m36.188 15.702h1v4.143h-1z" fill="#323c6b"/><circle cx="36.688" cy="13.163" fill="#d5d6db" r="2.539"/><path d="m36.688 16.2a3.039 3.039 0 1 1 3.039-3.039 3.042 3.042 0 0 1 -3.039 3.039zm0-5.078a2.039 2.039 0 1 0 2.039 2.039 2.041 2.041 0 0 0 -2.039-2.037z" fill="#323c6b"/><path d="m46.446 40.458h-19.515a3.977 3.977 0 0 1 -3.973-3.973v-13.168a3.977 3.977 0 0 1 3.973-3.973h19.515a3.977 3.977 0 0 1 3.973 3.973v13.168a3.977 3.977 0 0 1 -3.973 3.973zm-19.515-20.113a2.976 2.976 0 0 0 -2.973 2.973v13.167a2.976 2.976 0 0 0 2.973 2.973h19.515a2.976 2.976 0 0 0 2.973-2.973v-13.168a2.976 2.976 0 0 0 -2.973-2.973z" fill="#323c6b"/><path d="m6.375 36.458a.726.726 0 0 1 -.726-.726v-7.682a.726.726 0 1 1 1.452 0v7.681a.726.726 0 0 1 -.726.727z" fill="#fff"/><path d="m6.375 39.384a.726.726 0 0 1 -.726-.726v-.381a.726.726 0 1 1 1.452 0v.381a.726.726 0 0 1 -.726.726z" fill="#fff"/></svg>