<svg id="Layer_5" enable-background="new 0 0 64 64" height="512" viewBox="0 0 64 64" width="512" xmlns="http://www.w3.org/2000/svg"><path d="m24 51h8v6h-8z"/><path d="m16.236 55c-.381 0-.724.212-.894.553l-.724 1.447h7.382v-2z"/><path d="m14 59h28v2h-28z"/><path d="m38 44c0 1.654-1.346 3-3 3h-14c-1.654 0-3-1.346-3-3v-1h-15v3c0 1.654 1.346 3 3 3h44c1.654 0 3-1.346 3-3v-3h-15z"/><path d="m39.764 55h-5.764v2h7.382l-.724-1.447c-.17-.341-.513-.553-.894-.553z"/><circle cx="45" cy="19" r="2"/><path d="m24 45v-2h-4v1c0 .552.449 1 1 1z"/><path d="m41.553 11.792-5.057-6.321c-.73.461-1.419.978-2.064 1.547l5.67 5.67c.449-.348.934-.648 1.451-.896z"/><path d="m45 35c2.402 0 4.673-.547 6.72-1.499l-5.307-6.633c-.46.082-.93.132-1.413.132-4.411 0-8-3.589-8-8 0-.483.05-.953.133-1.413l-6.633-5.307c-.953 2.047-1.5 4.318-1.5 6.72 0 8.822 7.178 16 16 16z"/><path d="m38.688 14.102-5.67-5.67c-.569.645-1.086 1.333-1.547 2.064l6.32 5.057c.249-.517.549-1.002.897-1.451z"/><path d="m45 25c3.309 0 6-2.691 6-6s-2.691-6-6-6-6 2.691-6 6 2.691 6 6 6zm0-10c2.206 0 4 1.794 4 4s-1.794 4-4 4-4-1.794-4-4 1.794-4 4-4z"/><path d="m7 19v18h22v-9.792c-1.27-2.465-2-5.251-2-8.208zm10 12c0 2.206-1.794 4-4 4s-4-1.794-4-4v-6c0-2.206 1.794-4 4-4s4 1.794 4 4zm6-4c2.206 0 4 1.794 4 4s-1.794 4-4 4-4-1.794-4-4h2c0 1.103.897 2 2 2s2-.897 2-2-.897-2-2-2c-2.206 0-4-1.794-4-4s1.794-4 4-4 4 1.794 4 4h-2c0-1.103-.897-2-2-2s-2 .897-2 2 .897 2 2 2z"/><path d="m51.312 23.898 5.67 5.67c.569-.645 1.086-1.333 1.547-2.063l-6.32-5.057c-.249.516-.549 1.002-.897 1.45z"/><path d="m48.447 26.208 5.057 6.321c.731-.461 1.419-.978 2.064-1.547l-5.67-5.67c-.449.348-.934.648-1.451.896z"/><path d="m45 3c-2.402 0-4.673.547-6.72 1.499l5.307 6.633c.46-.082.93-.132 1.413-.132 4.411 0 8 3.589 8 8 0 .483-.05.953-.133 1.413l6.633 5.307c.953-2.047 1.5-4.318 1.5-6.72 0-8.822-7.178-16-16-16zm0 4v-2c6.097 0 11.452 3.896 13.325 9.692l-1.903.615c-1.606-4.968-6.195-8.307-11.422-8.307zm12 12c0-.618-.047-1.24-.141-1.848l1.977-.305c.109.709.164 1.432.164 2.153z"/><path d="m36 44v-1h-4v2h3c.551 0 1-.448 1-1z"/><path d="m31 30.289v6.711c0 1.103-.897 2-2 2h-22c-1.103 0-2-.897-2-2v-18c0-1.103.897-2 2-2h20.118c.076-.68.196-1.345.346-2h-21.464c-1.654 0-3 1.346-3 3v23h50v-5.899c-2.414 1.204-5.124 1.899-8 1.899-5.652 0-10.698-2.624-14-6.711z"/><path d="m13 23c-1.103 0-2 .897-2 2v6c0 1.103.897 2 2 2s2-.897 2-2v-6c0-1.103-.897-2-2-2z"/><path d="m26 43h4v2h-4z"/></svg>