<svg height="384pt" viewBox="0 0 384 384" width="384pt" xmlns="http://www.w3.org/2000/svg"><path d="m368 144c8.832031 0 16-7.167969 16-16s-7.167969-16-16-16h-32v-48c0-8.832031-7.167969-16-16-16h-48v-32c0-8.832031-7.167969-16-16-16s-16 7.167969-16 16v32h-32v-16c0-8.832031-7.167969-16-16-16s-16 7.167969-16 16v16h-32v-32c0-8.832031-7.167969-16-16-16s-16 7.167969-16 16v32h-48c-8.832031 0-16 7.167969-16 16v48h-32c-8.832031 0-16 7.167969-16 16s7.167969 16 16 16h32v32h-16c-8.832031 0-16 7.167969-16 16s7.167969 16 16 16h16v32h-32c-8.832031 0-16 7.167969-16 16s7.167969 16 16 16h32v48c0 8.832031 7.167969 16 16 16h48v32c0 8.832031 7.167969 16 16 16s16-7.167969 16-16v-32h32v16c0 8.832031 7.167969 16 16 16s16-7.167969 16-16v-16h32v32c0 8.832031 7.167969 16 16 16s16-7.167969 16-16v-32h48c8.832031 0 16-7.167969 16-16v-48h32c8.832031 0 16-7.167969 16-16s-7.167969-16-16-16h-32v-32h16c8.832031 0 16-7.167969 16-16s-7.167969-16-16-16h-16v-32zm-64 160h-224v-224h224zm0 0"/><path d="m200 168h-16c-8.832031 0-16 7.167969-16 16v16c0 8.832031 7.167969 16 16 16h16c8.832031 0 16-7.167969 16-16v-16c0-8.832031-7.167969-16-16-16zm0 0"/><path d="m256 112h-48c-8.832031 0-16 7.167969-16 16s7.167969 16 16 16h32v32c0 8.832031 7.167969 16 16 16s16-7.167969 16-16v-48c0-8.832031-7.167969-16-16-16zm0 0"/><path d="m176 240h-32v-32c0-8.832031-7.167969-16-16-16s-16 7.167969-16 16v48c0 8.832031 7.167969 16 16 16h48c8.832031 0 16-7.167969 16-16s-7.167969-16-16-16zm0 0"/><path d="m256 224c-8.832031 0-16 7.167969-16 16v16c0 8.832031 7.167969 16 16 16s16-7.167969 16-16v-16c0-8.832031-7.167969-16-16-16zm0 0"/><path d="m128 144h16c8.832031 0 16-7.167969 16-16s-7.167969-16-16-16h-16c-8.832031 0-16 7.167969-16 16s7.167969 16 16 16zm0 0"/></svg>