<svg id="Capa_1" enable-background="new 0 0 512 512" height="512" viewBox="0 0 512 512" width="512" xmlns="http://www.w3.org/2000/svg"><g><path d="m439.315 30.499c.886-.886.886-2.322 0-3.207l-26.627-26.628c-.886-.886-2.322-.886-3.207 0l-17.998 17.998c-.886.886-2.322.886-3.207 0l-12.719-12.717c-.886-.886-2.322-.886-3.207 0l-366.405 366.404c-.886.886-.886 2.322 0 3.207l12.718 12.718c.886.886.886 2.322 0 3.207l-17.999 17.999c-.886.886-.886 2.322 0 3.207l26.628 26.628c.886.886 2.322.886 3.207 0l17.998-17.998c.886-.886 2.322-.886 3.207 0l17.518 17.518c.886.886.886 2.322 0 3.207l-17.998 17.998c-.886.886-.886 2.322 0 3.207l48.087 48.087c.886.886 2.322.886 3.207 0l39.847-39.847-20.168-20.168c-.545-.545-.545-1.429 0-1.974l101.864-101.864-.693-.693c-5.715-5.715-6.24-15.024-.801-21.001 5.808-6.382 15.696-6.557 21.727-.525l.993.993 204.058-204.058c.545-.545 1.429-.545 1.974 0l20.168 20.168 39.847-39.847c.886-.886.886-2.322 0-3.207l-48.087-48.087c-.886-.886-2.322-.886-3.207 0l-17.998 17.998c-.886.886-2.322.886-3.207 0l-17.518-17.518c-.886-.886-.886-2.322 0-3.207z" fill="#78d0b1"/><path d="m99.312 511.336c.886.886 2.322.886 3.207 0l39.847-39.847 81.696-124.005-.693-.693c-3.703-3.703-5.228-8.916-4.361-13.754l-148.997 148.997z" fill="#66b49d"/><path d="m511.336 102.52c.886-.886.886-2.322 0-3.207l-48.088-48.087c-.886-.886-2.322-.886-3.207 0l-8.698 8.698 4.7 4.7c8.665 8.665 8.665 22.714 0 31.38l-225.121 225.119c4.7-.875 9.738.505 13.374 4.141l.993.993 226.199-183.89z" fill="#66b49d"/><path d="m253.683 251.279-27.858 27.858c-1.362 1.362-3.571 1.362-4.933 0l-37.675-37.675c-1.362-1.362-1.362-3.571 0-4.933l27.858-27.858c1.362-1.362 3.571-1.362 4.933 0l37.675 37.675c1.363 1.362 1.363 3.57 0 4.933z" fill="#738b95"/><path d="m187.154 342.94-83.721 83.721c-1.362 1.362-3.571 1.362-4.933 0l-50.241-50.241c-1.362-1.362-1.362-3.571 0-4.933l83.721-83.721c1.362-1.362 3.571-1.362 4.933 0l50.242 50.242c1.362 1.361 1.362 3.57-.001 4.932z" fill="#738b95"/><path d="m307.2 197.762-27.858 27.858c-1.362 1.362-3.571 1.362-4.933 0l-37.675-37.675c-1.362-1.362-1.362-3.571 0-4.933l27.858-27.858c1.362-1.362 3.571-1.362 4.933 0l37.675 37.675c1.363 1.362 1.363 3.57 0 4.933z" fill="#738b95"/><path d="m360.717 144.245-27.858 27.858c-1.362 1.362-3.571 1.362-4.933 0l-37.675-37.675c-1.362-1.362-1.362-3.571 0-4.933l27.858-27.858c1.362-1.362 3.571-1.362 4.933 0l37.675 37.675c1.363 1.362 1.363 3.57 0 4.933z" fill="#738b95"/><path d="m414.234 85.794c1.362 1.362 1.362 3.571 0 4.933l-27.858 27.858c-1.362 1.362-3.571 1.362-4.933 0l-37.675-37.675c-1.362-1.362-1.362-3.571 0-4.933l27.858-27.858c1.362-1.362 3.571-1.362 4.933 0z" fill="#738b95"/><path d="m216.008 208.67c-1.362-1.362-3.571-1.362-4.933 0l-7.835 7.835 14.501 14.501c6.989 6.989 6.989 18.32 0 25.309l-9.835 9.835 12.986 12.986c1.362 1.362 3.571 1.362 4.933 0l27.858-27.858c1.362-1.362 1.362-3.571 0-4.933z" fill="#617881"/><path d="m136.913 287.765c-1.362-1.362-3.571-1.362-4.933 0l-7.835 7.835 27.068 27.068c6.989 6.989 6.989 18.32 0 25.309l-65.698 65.698 12.985 12.986c1.362 1.362 3.571 1.362 4.933 0l83.721-83.721c1.362-1.362 1.362-3.571 0-4.933z" fill="#617881"/><path d="m323.042 101.636c-1.362-1.362-3.571-1.362-4.933 0l-7.836 7.835 14.501 14.501c6.989 6.989 6.989 18.32 0 25.309l-9.835 9.835 12.986 12.986c1.362 1.362 3.571 1.362 4.933 0l27.858-27.858c1.362-1.362 1.362-3.571 0-4.933z" fill="#617881"/><path d="m414.234 85.794-37.675-37.675c-1.362-1.362-3.571-1.362-4.933 0l-7.835 7.835 14.501 14.501c6.989 6.989 6.989 18.32 0 25.309l-9.835 9.835 12.986 12.986c1.362 1.362 3.571 1.362 4.933 0l27.858-27.858c1.363-1.362 1.363-3.57 0-4.933z" fill="#617881"/><path d="m269.525 155.153c-1.362-1.362-3.571-1.362-4.933 0l-7.835 7.835 14.501 14.501c6.989 6.989 6.989 18.32 0 25.309l-9.835 9.835 12.986 12.986c1.362 1.362 3.571 1.362 4.933 0l27.858-27.858c1.362-1.362 1.362-3.571 0-4.933z" fill="#617881"/><circle cx="100.916" cy="471.488" fill="#57988b" r="7.726"/><circle cx="471.488" cy="100.916" fill="#57988b" r="7.726"/><path d="m124.056 358.59c-1.977 0-3.955-.754-5.464-2.263-3.017-3.017-3.017-7.909 0-10.927l17.252-17.252c3.018-3.017 7.909-3.017 10.928 0 3.017 3.017 3.017 7.909 0 10.927l-17.252 17.252c-1.509 1.509-3.487 2.263-5.464 2.263z" fill="#f1f4f6"/><path d="m94.105 388.541c-1.978 0-3.955-.754-5.464-2.263-3.017-3.018-3.017-7.909.001-10.927l9.226-9.226c3.017-3.018 7.909-3.017 10.927 0 3.017 3.018 3.017 7.909-.001 10.927l-9.226 9.226c-1.509 1.509-3.486 2.263-5.463 2.263z" fill="#f1f4f6"/><path d="m244.231 367.651c.545.545.545 1.429 0 1.974l-101.864 101.863-20.168-20.168c-.545-.545-.545-1.429 0-1.974l101.864-101.864zm1.058-41.394 20.168 20.168c.545.545 1.429.545 1.974 0l204.058-204.058-20.168-20.168c-.545-.545-1.429-.545-1.974 0z" fill="#f1d333"/><g fill="#ecc32e"><path d="m352.947 218.6-10.927 10.926 21.154 21.155h.001l10.927-10.927z"/><path d="m373.517 198.03v-.001l-10.927 10.927 21.154 21.155 10.928-10.927z"/><path d="m332.377 239.17v-.001l-10.927 10.927 21.154 21.155 10.927-10.927z"/><path d="m311.807 259.74-10.927 10.927 21.154 21.154 10.927-10.927z"/><path d="m270.667 300.88-10.927 10.927 21.153 21.154.001.001 10.927-10.927z"/><path d="m291.236 280.31-10.927 10.927 21.155 21.154 10.927-10.927z"/><path d="m414.657 156.889-10.927 10.927 21.155 21.154 10.927-10.926z"/><path d="m188.97 424.885-21.155-21.154-10.926 10.926 21.154 21.154.001.001z"/><path d="m185.774 384.242h15.452v29.917h-15.452z" transform="matrix(.707 -.707 .707 .707 -225.603 253.748)"/><path d="m394.088 177.459h-.001l-10.927 10.927 21.154 21.155 10.927-10.927z"/><path d="m208.957 362.59h-.001l-10.927 10.927 21.154 21.155 10.928-10.927z"/><path d="m147.246 424.3-10.927 10.927 21.154 21.155 10.927-10.927z"/><path d="m435.227 136.319-10.926 10.927 21.154 21.154v.001l10.927-10.928z"/></g></g></svg>