<?xml version="1.0" encoding="iso-8859-1"?>
<!-- Generator: Adobe Illustrator 16.0.0, SVG Export Plug-In . SVG Version: 6.00 Build 0)  -->
<!DOCTYPE svg PUBLIC "-//W3C//DTD SVG 1.1//EN" "http://www.w3.org/Graphics/SVG/1.1/DTD/svg11.dtd">
<svg version="1.1" id="Capa_1" xmlns="http://www.w3.org/2000/svg" xmlns:xlink="http://www.w3.org/1999/xlink" x="0px" y="0px"
	 width="361.806px" height="361.807px" viewBox="0 0 361.806 361.807" style="enable-background:new 0 0 361.806 361.807;"
	 xml:space="preserve">
<g>
	<g>
		<g>
			<path d="M352.623,171.689L319.26,0H51.524L9.184,172.028v4.876v52.419v9.457v52.428v8.719v61.88h343.438v-61.88v-8.719V238.78
				v-9.457v-52.419V171.689z M343.898,353.1H17.909v-53.173h325.989V353.1z M343.898,291.208H17.909V238.78h325.989V291.208z
				 M343.898,229.323H17.909v-52.419h325.989V229.323z"/>
		</g>
		<g>
			<path d="M301.221,216.461c8.558,0,15.505-6.954,15.505-15.505s-6.947-15.498-15.505-15.498c-8.551,0-15.498,6.947-15.498,15.498
				S292.683,216.461,301.221,216.461z M301.221,194.177c3.735,0,6.792,3.045,6.792,6.791c0,3.735-3.051,6.786-6.792,6.786
				c-3.734,0-6.785-3.051-6.785-6.786C294.436,197.222,297.487,194.177,301.221,194.177z"/>
		</g>
		<g>
			<path d="M301.221,279.884c8.558,0,15.505-6.954,15.505-15.505c0-8.563-6.947-15.511-15.505-15.511
				c-8.551,0-15.498,6.96-15.498,15.511C285.729,272.93,292.683,279.884,301.221,279.884z M301.221,257.594
				c3.735,0,6.792,3.032,6.792,6.785c0,3.735-3.051,6.785-6.792,6.785c-3.734,0-6.785-3.05-6.785-6.785
				C294.436,260.626,297.487,257.594,301.221,257.594z"/>
		</g>
		<g>
			<path d="M301.221,339.835c8.558,0,15.505-6.947,15.505-15.498c0-8.557-6.947-15.498-15.505-15.498
				c-8.551,0-15.498,6.941-15.498,15.498C285.723,332.888,292.683,339.835,301.221,339.835z M301.221,317.546
				c3.735,0,6.792,3.05,6.792,6.791c0,3.729-3.051,6.791-6.792,6.791c-3.734,0-6.785-3.051-6.785-6.791
				C294.436,320.596,297.487,317.546,301.221,317.546z"/>
		</g>
		<g>
			<rect x="33.002" y="189.812" width="80.614" height="11.145"/>
		</g>
		<g>
			<rect x="33.002" y="247.661" width="80.614" height="11.151"/>
		</g>
		<g>
			<rect x="33.002" y="307.626" width="80.614" height="11.145"/>
		</g>
	</g>
</g>
<g>
</g>
<g>
</g>
<g>
</g>
<g>
</g>
<g>
</g>
<g>
</g>
<g>
</g>
<g>
</g>
<g>
</g>
<g>
</g>
<g>
</g>
<g>
</g>
<g>
</g>
<g>
</g>
<g>
</g>
</svg>
